<svg version="1.1" id="shopping_x5F_carts_1_" xmlns="http://www.w3.org/2000/svg" x="0" y="0" viewBox="0 0 128 128"
     style="enable-background:new 0 0 128 128" xml:space="preserve"><style>.st0{display:none}.st1{display:inline}.st2{fill:#ffffff}</style>
    <g id="_x31_3_1_"><path class="st2" d="M125.1 43.6h-20.4V17.5H84.4v-2.9H46.5v2.9H26.2v26.2H2.9C1.3 43.7 0 45 0 46.6v8.7c0 1.6 1.3 2.9 2.9 2.9h122.2c1.6 0 2.9-1.3 2.9-2.9v-8.7c0-1.7-1.3-3-2.9-3zm-26.2 0H32V23.3h14.5v2.9h37.8v-2.9h14.5v20.3zm-78.5 64c0 3.2 2.6 5.8 5.8 5.8h72.7c3.2 0 5.8-2.6 5.8-5.8l14.5-46.5H8.7l11.7 46.5zm61.1-36.3c0-5 8.7-5 8.7 0v29.1c0 5-8.7 5-8.7 0V71.3zm-23.3 0c0-5 8.7-5 8.7 0v29.1c0 5-8.7 5-8.7 0V71.3zm-23.3 0c0-5 8.7-5 8.7 0v29.1c0 5-8.7 5-8.7 0V71.3z" id="icon_2_"/></g></svg>